<?xml version="1.0" encoding="utf-8"?>
<!-- Generator: Adobe Illustrator 16.0.0, SVG Export Plug-In . SVG Version: 6.00 Build 0)  -->
<!DOCTYPE svg PUBLIC "-//W3C//DTD SVG 1.1//EN" "http://www.w3.org/Graphics/SVG/1.1/DTD/svg11.dtd">
<svg version="1.1" id="Layer_1" xmlns="http://www.w3.org/2000/svg" xmlns:xlink="http://www.w3.org/1999/xlink" x="0px" y="0px"
	 width="400px" height="400px" viewBox="0 0 400 400" enable-background="new 0 0 400 400" xml:space="preserve">
<g>
	<g>
		<g>
			<path fill="#FFFFFF" d="M383.283,169.408c-6.262,0-11.218,4.681-12.116,10.698l-95.232-4.938c0-0.032,0.005-0.072,0.005-0.113
				c0-13.308-10.788-24.078-24.082-24.078c-4.302,0-8.274,1.21-11.772,3.187l-41.137-56.66c2.694-2.934,4.365-6.825,4.365-11.123
				c0-9.118-7.394-16.521-16.521-16.521c-9.134,0-16.53,7.403-16.53,16.521c0,9.137,7.396,16.535,16.53,16.535
				c3.99,0,7.593-1.467,10.452-3.828l40.836,56.245c-6.225,4.356-10.306,11.552-10.306,19.722c0,3.087,0.632,6.017,1.702,8.739
				l-56.579,32.844c-5.839-7.588-14.928-12.576-25.251-12.576c-3.322,0-6.462,0.654-9.471,1.589l-28.179-55.166
				c2.699-1.702,4.593-4.555,4.593-7.985c0-5.304-4.291-9.588-9.59-9.588c-5.286,0-9.577,4.284-9.577,9.588
				c0,5.291,4.291,9.579,9.577,9.579c1.041,0,2.002-0.28,2.943-0.583l27.989,54.855c-11.847,4.676-20.232,16.155-20.232,29.661
				c0,1.088,0.214,2.117,0.323,3.174l-74.678,5.746c-1.178-9.173-8.931-16.296-18.438-16.296c-10.308,0-18.668,8.365-18.668,18.68
				c0,10.323,8.36,18.67,18.668,18.67c10.323,0,18.684-8.347,18.684-18.67c0-0.027-0.005-0.046-0.005-0.072l74.658-5.751
				c2.604,15.014,15.63,26.466,31.402,26.466c2.216,0,4.403-0.244,6.502-0.668l2.877,34.577c-6.775,1.102-11.96,6.929-11.96,14.021
				c0,7.868,6.376,14.251,14.26,14.251c7.861,0,14.249-6.383,14.249-14.251c0-7.877-6.383-14.256-14.242-14.256l-2.923-35.042
				c13.348-3.837,23.187-16.002,23.187-30.578c0-6.478-1.966-12.49-5.279-17.527l56.144-32.592
				c3.972,7.836,12.016,13.249,21.396,13.249c2.861,0,5.548-0.583,8.08-1.494l29.761,67.408c-3.887,1.923-6.636,5.822-6.636,10.463
				c0,6.482,5.259,11.741,11.741,11.741c6.481,0,11.745-5.259,11.745-11.741c0-6.478-5.264-11.736-11.745-11.736
				c-1.021,0-1.937,0.343-2.871,0.582l-29.855-67.579c7.475-3.517,12.757-10.734,13.623-19.311l95.219,4.911
				c0.289,6.64,5.661,11.976,12.364,11.976c6.893,0,12.477-5.593,12.477-12.477C395.76,174.988,390.176,169.408,383.283,169.408z"/>
		</g>
	</g>
</g>
</svg>
